<?xml version="1.0" encoding="UTF-8"?>
<svg width="213px" height="60px" viewBox="0 0 213 60" version="1.1" xmlns="http://www.w3.org/2000/svg" xmlns:xlink="http://www.w3.org/1999/xlink">
    <!-- Generator: Sketch 63.1 (92452) - https://sketch.com -->
    <title>Group 8</title>
    <desc>Created with Sketch.</desc>
    <defs>
        <polygon id="path-1" points="0.57216875 0.57808125 64.5510625 0.57808125 64.5510625 59.125 0.57216875 59.125"></polygon>
    </defs>
    <g id="LOGOS" stroke="none" stroke-width="1" fill="none" fill-rule="evenodd">
        <g id="Group-8" transform="translate(0.000000, -2.000000)">
            <polygon id="Fill-1" fill="#E21836" points="31.2913687 3.4959 0.00080625 60.540775 23.9007437 60.540775 43.8796187 18.2798375 57.5079312 47.1489625 30.3722437 47.1489625 37.8811187 60.540775 87.5273062 60.540775 56.4651812 3.4959"></polygon>
            <g id="Group-7" transform="translate(80.625000, 2.111300)">
                <path d="M7.02431875,25.29045 L36.8125687,25.29045 C44.3241312,25.29045 47.3206937,24.8255125 47.3206937,19.5150125 C47.3206937,14.4302625 44.8965687,13.8551375 37.1538812,13.8551375 L6.90338125,13.8551375 L0.20613125,1.38245 L42.2413187,1.38245 C62.1073188,1.38245 69.4925688,10.0496375 69.4925688,19.2812 C69.4925688,28.176825 62.6797562,37.991575 40.8599437,37.991575 L30.9242563,37.991575 L30.9242563,58.4300125 L6.90338125,58.4300125 L6.90338125,25.29045 L7.02431875,25.29045 Z" id="Fill-2" fill="#E21836"></path>
                <g id="Group-6" transform="translate(67.187500, 0.000000)">
                    <mask id="mask-2" fill="white">
                        <use xlink:href="#path-1"></use>
                    </mask>
                    <g id="Clip-5"></g>
                    <path d="M64.5534813,54.1587688 C57.3886063,57.5073937 48.4956688,59.1252687 39.0276063,59.1252687 C10.3896063,59.1252687 0.57216875,43.1883937 0.57216875,30.0250188 C0.57216875,13.3974562 15.1222938,0.57808125 40.1886063,0.57808125 C49.3046063,0.57808125 57.2730438,1.95945625 63.9702938,4.49914375 L63.9702938,21.0165188 C57.0472938,17.3238938 51.0380438,15.7033312 43.9941063,15.7033312 C31.9836688,15.7033312 22.1689188,21.1267063 22.1689188,29.7885187 C22.1689188,38.3374562 32.2147938,43.8817687 44.2252313,43.8817687 C51.1589813,43.8817687 56.8107938,42.4977062 64.5534813,38.9152687 L64.5534813,54.1587688 Z" id="Fill-4" fill="#E21836" mask="url(#mask-2)"></path>
                </g>
            </g>
        </g>
    </g>
</svg>