<?xml version="1.0" encoding="UTF-8"?>
<svg width="215px" height="40px" viewBox="0 0 215 40" version="1.1" xmlns="http://www.w3.org/2000/svg" xmlns:xlink="http://www.w3.org/1999/xlink">
    <!-- Generator: Sketch 63.1 (92452) - https://sketch.com -->
    <title>Group</title>
    <desc>Created with Sketch.</desc>
    <defs>
        <polygon id="path-1" points="0.0229537367 0.291512456 90.6355071 0.291512456 90.6355071 35.9336922 0.0229537367 35.9336922"></polygon>
    </defs>
    <g id="LOGOS" stroke="none" stroke-width="1" fill="none" fill-rule="evenodd">
        <g id="Group">
            <g id="Group-3">
                <mask id="mask-2" fill="white">
                    <use xlink:href="#path-1"></use>
                </mask>
                <g id="Clip-2"></g>
                <path d="M81.7665658,9.79741993 C81.7665658,8.20634342 81.6789591,7.1883452 81.5006851,6.74457295 C81.3227936,6.30118327 80.9582117,6.07891459 80.4042616,6.07891459 C79.9344751,6.07891459 79.5767794,6.25910142 79.3262011,6.61794484 C79.0783007,6.97793594 78.9551157,8.03686833 78.9551157,9.79741993 L78.9551157,25.7716904 C78.9551157,27.7587189 79.0358363,28.984831 79.1991904,29.4492616 C79.3640747,29.9140747 79.743194,30.1466726 80.3403737,30.1466726 C80.9490302,30.1466726 81.340774,29.878879 81.5106317,29.3436744 C81.681637,28.8080872 81.7665658,27.5337722 81.7665658,25.517669 L81.7665658,9.79741993 M90.3937278,28.3390658 C90.2303737,29.7679359 89.7253915,31.0740036 88.8761032,32.2568861 C88.0226068,33.4405338 86.8714769,34.3487367 85.4246263,34.9822598 C83.975863,35.616548 82.2876157,35.9336922 80.361032,35.9336922 C78.5327669,35.9336922 76.8900445,35.6318505 75.4340125,35.0350534 C73.9772153,34.4371085 72.8050445,33.5392349 71.9201779,32.3410498 C71.0337811,31.1440125 70.5058452,29.8413879 70.3375178,28.4335587 C70.1684253,27.0245819 70.0850267,24.5601157 70.0850267,21.039395 L70.0850267,15.1869573 C70.0850267,11.7504004 70.1638345,9.31768683 70.326806,7.88843416 C70.4886299,6.45841637 70.9951423,5.15196619 71.8474911,3.96908363 C72.697927,2.78620107 73.8479093,1.87761566 75.2970552,1.24370996 C76.7458185,0.609421708 78.434831,0.291512456 80.361032,0.291512456 C82.1889146,0.291512456 83.831637,0.592206406 85.287669,1.19053381 C86.7433185,1.78924377 87.9135765,2.68788256 88.8015036,3.88377224 C89.6871352,5.0819573 90.2127758,6.38496441 90.3818683,7.79279359 C90.5505783,9.2013879 90.6355071,11.6658541 90.6355071,15.1869573 L90.6355071,21.039395 C90.6355071,24.475952 90.5547865,26.909048 90.3937278,28.3390658 M67.1664591,21.4923488 L67.1664591,22.8263434 C67.1664591,26.3704004 66.9162633,28.8823043 66.4174021,30.3647331 C65.9150979,31.8452491 64.8091103,33.1448132 63.0956139,34.2603648 C61.3832651,35.3747687 59.2722865,35.9336922 56.7645907,35.9336922 C54.1566637,35.9336922 52.0062811,35.4596975 50.3149733,34.5182117 C48.6232829,33.574048 47.5016103,32.2675979 46.9526335,30.5980961 C46.4028915,28.9305071 46.1282117,26.4193683 46.1282117,23.0673577 L46.1282117,13.0744484 C46.1282117,10.6099822 46.212758,8.76144128 46.3810854,7.52844306 C46.5497954,6.29735765 47.0555427,5.10988434 47.8929715,3.96908363 C48.731548,2.82866548 49.8945374,1.93079181 51.3823221,1.27546263 C52.8697242,0.61975089 54.5770996,0.291512456 56.5098043,0.291512456 C59.1322687,0.291512456 61.2948932,0.798407473 62.9995907,1.81296263 C64.7058185,2.82751779 65.826726,4.09073843 66.361548,5.60377224 C66.8994306,7.11757117 67.1664591,9.47300712 67.1664591,12.6696975 L67.1664591,15.9218594 L58.2967527,15.9218594 L58.2967527,9.96536477 C58.2967527,8.2338879 58.1999644,7.1527669 58.0052402,6.72353203 C57.8108986,6.29429715 57.383194,6.07891459 56.7244217,6.07891459 C55.9753648,6.07891459 55.4998399,6.33982206 55.2997598,6.86087189 C55.098532,7.38192171 54.9979181,8.50933274 54.9979181,10.2415747 L54.9979181,26.1301512 C54.9979181,27.7946797 55.098532,28.8788612 55.2997598,29.3853737 C55.4998399,29.8930338 55.9543238,30.1466726 56.658621,30.1466726 C57.3330783,30.1466726 57.7757028,29.891121 57.9830516,29.3830783 C58.1907829,28.8727402 58.2967527,27.6802936 58.2967527,25.7977046 L58.2967527,21.4923488 L67.1664591,21.4923488 M34.6264769,8.83451068 C34.6264769,7.64818505 34.5189769,6.89147687 34.3058897,6.56668149 C34.0931851,6.24226868 33.7370196,6.07891459 33.2389235,6.07891459 C32.698363,6.07891459 32.2905516,6.29735765 32.0135765,6.73309609 C31.7354537,7.16921708 31.5977313,7.82951957 31.5977313,8.713621 C31.5977313,9.85289146 31.7545819,10.709831 32.069048,11.2852046 C32.3689769,11.861726 33.2125267,12.5602847 34.5989324,13.3782028 C38.5714591,15.7382295 41.0737989,17.6713167 42.1078648,19.1786121 C43.141548,20.6855249 43.6583897,23.1151779 43.6583897,26.4671886 C43.6583897,28.9048754 43.3718505,30.7013879 42.7991548,31.856726 C42.2264591,33.0105338 41.1204715,33.9791815 39.4819573,34.7603737 C37.8426779,35.5400356 35.9344573,35.9336922 33.7572954,35.9336922 C31.3685765,35.9336922 29.3295196,35.4807384 27.6408897,34.5794217 C25.9514947,33.678105 24.8455071,32.5304181 24.3233096,31.134831 C23.800347,29.7400089 23.5386744,27.7587189 23.5386744,25.1944039 L23.5386744,22.952589 L31.813879,22.952589 L31.813879,27.1194573 C31.813879,28.4041014 31.9317082,29.2296708 32.1696619,29.5954004 C32.406468,29.9615125 32.8272865,30.1466726 33.4317349,30.1466726 C34.0342705,30.1466726 34.4841637,29.9140747 34.7795018,29.4511744 C35.0725445,28.9863612 35.2205961,28.2962189 35.2205961,27.3815125 C35.2205961,25.3722954 34.9432384,24.0574288 34.387758,23.4369128 C33.8181228,22.8190747 32.422153,21.7838612 30.1987011,20.3285943 C27.974484,18.8599377 26.5004715,17.7945018 25.778194,17.1311388 C25.053621,16.4696886 24.4556762,15.5545996 23.9812989,14.3847242 C23.5065391,13.2152313 23.2682028,11.7220907 23.2682028,9.90530249 C23.2682028,7.28589858 23.6033274,5.37002669 24.2747242,4.15883452 C24.9453559,2.94687722 26.0287722,1.99965302 27.5253559,1.31677936 C29.0219395,0.633905694 30.8291637,0.291512456 32.9470285,0.291512456 C35.2626779,0.291512456 37.2347865,0.665658363 38.866032,1.41356762 C40.4965125,2.16109431 41.5764858,3.10296263 42.1070996,4.23764235 C42.6354181,5.37461744 42.9005338,7.30273132 42.9005338,10.0258096 L42.9005338,11.3781673 L34.6264769,11.3781673 L34.6264769,8.83451068 M11.3291993,8.63787367 C10.4359164,15.1969039 9.8636032,19.9865836 9.61149466,23.0076779 L12.6930338,23.0076779 C12.2534698,19.1418861 11.7989858,14.3506762 11.3291993,8.63787367 M13.4260231,35.2286299 L12.9397865,29.0632562 L9.67844306,29.0632562 L9.18034698,35.2286299 L0,35.2286299 L4.55631673,1.04822064 L17.3996975,1.04822064 L22.4984875,35.2286299 L13.4260231,35.2286299" id="Fill-1" fill="#008E47" mask="url(#mask-2)"></path>
            </g>
            <path d="M98.5097865,8.08468861 L102.407714,8.08468861 C103.696948,8.08468861 104.61242,7.8444395 105.154128,7.36432384 C105.695836,6.88459075 105.96669,6.20898577 105.96669,5.33827402 C105.96669,4.70742883 105.807544,4.16725089 105.488488,3.71850534 C105.169813,3.26937722 104.74976,2.9725089 104.22871,2.82866548 C103.892438,2.73952847 103.271922,2.69476868 102.366779,2.69476868 L98.5097865,2.69476868 L98.5097865,8.08468861 Z M96.5143416,15.9941637 L96.5143416,0.91547153 L102.202278,0.91547153 C103.203443,0.91547153 103.967802,0.963291815 104.495738,1.05931495 C105.236379,1.18288256 105.856895,1.4177758 106.357669,1.76399466 C106.85806,2.11021352 107.260899,2.59530249 107.566183,3.21926157 C107.871085,3.8436032 108.023728,4.5291548 108.023728,5.27668149 C108.023728,6.55864769 107.615916,7.64397687 106.799911,8.53190391 C105.983906,9.41983096 104.509511,9.86398577 102.377109,9.86398577 L98.5097865,9.86398577 L98.5097865,15.9941637 L96.5143416,15.9941637 L96.5143416,15.9941637 Z" id="Fill-4" fill="#1B1A19"></path>
            <path d="M111.014982,10.5323221 C111.014982,11.9313523 111.319884,12.9788078 111.930454,13.6746886 C112.540641,14.370952 113.308826,14.7187011 114.234244,14.7187011 C115.153158,14.7187011 115.917518,14.3690391 116.528087,13.6697153 C117.138274,12.9703915 117.443559,11.9041904 117.443559,10.4707295 C117.443559,9.11990214 117.136361,8.09654804 116.522731,7.4002847 C115.909101,6.70478648 115.146272,6.35627224 114.234244,6.35627224 C113.308826,6.35627224 112.540641,6.70287367 111.930454,7.39531139 C111.319884,8.08813167 111.014982,9.13367438 111.014982,10.5323221 Z M109.112117,10.5323221 C109.112117,8.5097153 109.674484,7.01121886 110.798835,6.03759786 C111.738407,5.22847865 112.883416,4.82411032 114.234244,4.82411032 C115.735801,4.82411032 116.963443,5.31608541 117.916788,6.30003559 C118.869368,7.28398577 119.346041,8.64322954 119.346041,10.3781495 C119.346041,11.7836833 119.135249,12.8896708 118.713665,13.695347 C118.291699,14.5010231 117.678069,15.126895 116.872776,15.5721975 C116.066717,16.0178826 115.187206,16.2409164 114.234244,16.2409164 C112.705142,16.2409164 111.469084,15.7508541 110.52645,14.770347 C109.583434,13.7894573 109.112117,12.3770374 109.112117,10.5323221 L109.112117,10.5323221 Z" id="Fill-5" fill="#1B1A19"></path>
            <path d="M123.006014,15.9941637 L119.662802,5.07086299 L121.575996,5.07086299 L123.314359,11.3758719 L123.96242,13.7209786 C123.989964,13.6042972 124.178568,12.85371 124.52823,11.468452 L126.26621,5.07086299 L128.169075,5.07086299 L129.804528,11.4068594 L130.34968,13.4948843 L130.977082,11.3862011 L132.848959,5.07086299 L134.648915,5.07086299 L131.234164,15.9941637 L129.311023,15.9941637 L127.57266,9.45234875 L127.151077,7.59080071 L124.939484,15.9941637 L123.006014,15.9941637" id="Fill-6" fill="#1B1A19"></path>
            <path d="M137.074359,9.4833363 L143.17355,9.4833363 C143.091299,8.56442171 142.857936,7.87542705 142.474226,7.41596975 C141.884315,6.70287367 141.119573,6.34632562 140.180383,6.34632562 C139.330329,6.34632562 138.61532,6.63095196 138.035738,7.19982206 C137.456539,7.76907473 137.135952,8.53037367 137.074359,9.4833363 Z M143.152891,12.4765036 L145.066085,12.712927 C144.764244,13.830774 144.20532,14.6980427 143.389315,15.3151157 C142.57331,15.9325712 141.53121,16.2409164 140.262633,16.2409164 C138.665053,16.2409164 137.398007,15.7489413 136.46226,14.7649911 C135.52613,13.7810409 135.058256,12.4011388 135.058256,10.6249021 C135.058256,8.78745552 135.531486,7.36126335 136.477562,6.34632562 C137.424021,5.3313879 138.651281,4.82411032 140.160107,4.82411032 C141.620347,4.82411032 142.813559,5.32144128 143.739359,6.31533808 C144.664778,7.30961744 145.127678,8.70826512 145.127678,10.5120463 C145.127678,10.6214591 145.124235,10.7863434 145.117731,11.0055516 L136.97145,11.0055516 C137.039929,12.2056495 137.379262,13.1241815 137.989448,13.7619128 C138.599635,14.3996441 139.360934,14.7187011 140.272963,14.7187011 C140.951628,14.7187011 141.53121,14.540427 142.011326,14.183879 C142.491059,13.827331 142.871708,13.2580783 143.152891,12.4765036 L143.152891,12.4765036 Z" id="Fill-7" fill="#1B1A19"></path>
            <path d="M146.84347,15.9941637 L146.84347,5.07086299 L148.509528,5.07086299 L148.509528,6.72659253 C148.934938,5.95190391 149.327447,5.44118327 149.687438,5.19404804 C150.047429,4.94729537 150.443381,4.82411032 150.875294,4.82411032 C151.499253,4.82411032 152.133541,5.0230427 152.778158,5.42052491 L152.140427,7.13822954 C151.687856,6.87081851 151.235285,6.73692171 150.782714,6.73692171 C150.378345,6.73692171 150.014911,6.85895907 149.692794,7.10226868 C149.370294,7.34557829 149.140374,7.68338078 149.003416,8.11529359 C148.797598,8.77368327 148.694689,9.49366548 148.694689,10.2752402 L148.694689,15.9941637 L146.84347,15.9941637" id="Fill-8" fill="#1B1A19"></path>
            <polyline id="Fill-9" fill="#1B1A19" points="100.351059 35.3533452 100.351059 22.0543327 95.383105 22.0543327 95.383105 20.274653 107.334733 20.274653 107.334733 22.0543327 102.346121 22.0543327 102.346121 35.3533452 100.351059 35.3533452"></polyline>
            <path d="M107.998479,28.8425178 L114.097669,28.8425178 C114.015418,27.9239858 113.782055,27.2346085 113.398345,26.7751512 C112.808434,26.0620552 112.043692,25.7055071 111.104502,25.7055071 C110.254448,25.7055071 109.53944,25.9901335 108.959858,26.5593861 C108.380658,27.1286388 108.060071,27.8895552 107.998479,28.8425178 Z M114.077011,31.8360676 L115.990205,32.0724911 C115.688363,33.1903381 115.12944,34.0576068 114.313817,34.6746797 C113.497429,35.2917527 112.455329,35.6004804 111.186753,35.6004804 C109.589173,35.6004804 108.322126,35.1085053 107.386379,34.1241726 C106.450249,33.140605 105.982375,31.7603203 105.982375,29.9844662 C105.982375,28.146637 106.455605,26.7204448 107.401681,25.7055071 C108.348141,24.690952 109.5754,24.1832918 111.084226,24.1832918 C112.544466,24.1832918 113.737678,24.6806228 114.663479,25.6749021 C115.589279,26.6691815 116.051797,28.0678292 116.051797,29.8712278 C116.051797,29.9810231 116.048354,30.1455249 116.041851,30.3651157 L107.895569,30.3651157 C107.964048,31.5652135 108.303381,32.4837456 108.913568,33.1214769 C109.524137,33.7592082 110.285053,34.0778826 111.197082,34.0778826 C111.875747,34.0778826 112.455329,33.8999911 112.935445,33.5430605 C113.415178,33.186895 113.795827,32.6172598 114.077011,31.8360676 L114.077011,31.8360676 Z" id="Fill-10" fill="#1B1A19"></path>
            <path d="M125.232144,31.3525089 L127.052758,31.5889324 C126.853443,32.8437367 126.344635,33.8261566 125.525187,34.5358096 C124.705738,35.2454626 123.6996,35.6004804 122.506388,35.6004804 C121.011335,35.6004804 119.809706,35.1119484 118.901504,34.1345018 C117.992536,33.1574377 117.538434,31.7568772 117.538434,29.9328203 C117.538434,28.7537633 117.733923,27.7216103 118.124902,26.8371263 C118.515498,25.9526423 119.110383,25.2888968 119.909555,24.8466548 C120.707963,24.4044128 121.577144,24.1832918 122.516717,24.1832918 C123.703043,24.1832918 124.673221,24.4832206 125.427633,25.0834609 C126.181664,25.6833185 126.665222,26.5352847 126.877544,27.6393594 L125.077972,27.9170996 C124.906584,27.1833452 124.602829,26.6313078 124.167473,26.2609875 C123.732117,25.8906673 123.205712,25.7055071 122.588639,25.7055071 C121.655952,25.7055071 120.898096,26.0398665 120.315836,26.7085854 C119.732811,27.3769217 119.441299,28.4347064 119.441299,29.8815569 C119.441299,31.3490658 119.722482,32.4152669 120.284849,33.0805427 C120.846833,33.7454359 121.580587,34.0778826 122.48573,34.0778826 C123.212598,34.0778826 123.819342,33.8552313 124.306343,33.4095463 C124.793345,32.9638612 125.10169,32.277927 125.232144,31.3525089" id="Fill-11" fill="#1B1A19"></path>
            <path d="M128.425774,35.3533452 L128.425774,20.274653 L130.277375,20.274653 L130.277375,25.6848488 C131.141201,24.6840658 132.231504,24.1832918 133.5479,24.1832918 C134.35702,24.1832918 135.060169,24.3428203 135.656584,24.6614947 C136.253381,24.9805516 136.679938,25.4208808 136.93702,25.9832473 C137.194484,26.5456139 137.323025,27.3616192 137.323025,28.4312633 L137.323025,35.3533452 L135.471423,35.3533452 L135.471423,28.4312633 C135.471423,27.5054626 135.270961,26.8317705 134.869653,26.4101868 C134.468728,25.9882206 133.901388,25.7778114 133.167633,25.7778114 C132.619039,25.7778114 132.102963,25.9201246 131.619404,26.2043683 C131.136228,26.4889947 130.791539,26.8746174 130.585721,27.3616192 C130.380285,27.848621 130.277375,28.5204004 130.277375,29.3777224 L130.277375,35.3533452 L128.425774,35.3533452" id="Fill-12" fill="#1B1A19"></path>
            <path d="M139.930187,35.3533452 L139.930187,24.4300445 L141.596628,24.4300445 L141.596628,25.9832473 C142.398861,24.7831495 143.557642,24.1832918 145.073354,24.1832918 C145.731744,24.1832918 146.336575,24.3015036 146.888612,24.537927 C147.440267,24.7747331 147.853434,25.0849911 148.128114,25.4690836 C148.402411,25.8531762 148.594075,26.3091904 148.70387,26.8371263 C148.772349,27.1799021 148.806779,27.7801423 148.806779,28.6370819 L148.806779,35.3533452 L146.95556,35.3533452 L146.95556,28.7090036 C146.95556,27.9545907 146.883256,27.390694 146.739413,27.0169306 C146.595569,26.6431673 146.340018,26.3447687 145.973141,26.1221174 C145.606263,25.8994662 145.175881,25.787758 144.682375,25.787758 C143.893532,25.787758 143.213336,26.0383363 142.640641,26.5387278 C142.067945,27.0391192 141.781788,27.9890214 141.781788,29.3880516 L141.781788,35.3533452 L139.930187,35.3533452" id="Fill-13" fill="#1B1A19"></path>
            <path d="M152.648852,29.8918861 C152.648852,31.2905338 152.953754,32.3383719 153.564324,33.0338701 C154.174511,33.7301335 154.942696,34.0778826 155.868114,34.0778826 C156.787028,34.0778826 157.55177,33.7282206 158.161957,33.0288968 C158.772144,32.329573 159.077429,31.2633719 159.077429,29.829911 C159.077429,28.4794662 158.770231,27.4557295 158.156984,26.7598488 C157.542972,26.063968 156.780142,25.7158363 155.868114,25.7158363 C154.942696,25.7158363 154.174511,26.0620552 153.564324,26.7548754 C152.953754,27.4473132 152.648852,28.4928559 152.648852,29.8918861 Z M150.745988,29.8918861 C150.745988,27.8688968 151.308354,26.3707829 152.432705,25.3967794 C153.372278,24.5880427 154.517286,24.1832918 155.868114,24.1832918 C157.369671,24.1832918 158.597313,24.6752669 159.550658,25.6592171 C160.503238,26.6431673 160.979911,28.0027936 160.979911,29.7377135 C160.979911,31.1432473 160.769119,32.2492349 160.347536,33.0545285 C159.925952,33.8605872 159.312322,34.4860765 158.506646,34.9317616 C157.700587,35.3774466 156.821077,35.6004804 155.868114,35.6004804 C154.339012,35.6004804 153.102954,35.1100356 152.16032,34.1295285 C151.217304,33.1490214 150.745988,31.7366014 150.745988,29.8918861 L150.745988,29.8918861 Z" id="Fill-14" fill="#1B1A19"></path>
            <polygon id="Fill-15" fill="#1B1A19" points="162.898461 35.3533452 164.74968 35.3533452 164.74968 20.274653 162.898461 20.274653"></polygon>
            <path d="M168.622358,29.8918861 C168.622358,31.2905338 168.927642,32.3383719 169.537829,33.0338701 C170.148016,33.7301335 170.916201,34.0778826 171.842002,34.0778826 C172.760534,34.0778826 173.525276,33.7282206 174.135463,33.0288968 C174.745649,32.329573 175.050934,31.2633719 175.050934,29.829911 C175.050934,28.4794662 174.743737,27.4557295 174.130489,26.7598488 C173.516477,26.063968 172.753648,25.7158363 171.842002,25.7158363 C170.916201,25.7158363 170.148016,26.0620552 169.537829,26.7548754 C168.927642,27.4473132 168.622358,28.4928559 168.622358,29.8918861 Z M166.719493,29.8918861 C166.719493,27.8688968 167.281859,26.3707829 168.406593,25.3967794 C169.345783,24.5880427 170.490792,24.1832918 171.842002,24.1832918 C173.343559,24.1832918 174.570819,24.6752669 175.524164,25.6592171 C176.477126,26.6431673 176.953799,28.0027936 176.953799,29.7377135 C176.953799,31.1432473 176.743007,32.2492349 176.321423,33.0545285 C175.899457,33.8605872 175.285827,34.4860765 174.480151,34.9317616 C173.674475,35.3774466 172.794964,35.6004804 171.842002,35.6004804 C170.312518,35.6004804 169.076459,35.1100356 168.133826,34.1295285 C167.191192,33.1490214 166.719493,31.7366014 166.719493,29.8918861 L166.719493,29.8918861 Z" id="Fill-16" fill="#1B1A19"></path>
            <path d="M180.106877,29.6963968 C180.106877,31.1294751 180.391121,32.1754004 180.960374,32.83379 C181.529244,33.4917972 182.242722,33.8208007 183.099662,33.8208007 C183.949715,33.8208007 184.663194,33.49371 185.239333,32.8387633 C185.815089,32.1838167 186.103158,31.1570196 186.103158,29.7579893 C186.103158,28.4209342 185.80629,27.4128826 185.213319,26.7342171 C184.619964,26.055169 183.905338,25.7158363 183.069057,25.7158363 C182.246165,25.7158363 181.546459,26.0501957 180.970703,26.7189146 C180.394564,27.3872509 180.106877,28.3796174 180.106877,29.6963968 Z M178.57395,36.2588701 L180.373906,36.5258986 C180.449653,37.0817616 180.658532,37.4861299 181.001308,37.7397687 C181.460765,38.0825445 182.088167,38.2539324 182.883514,38.2539324 C183.740836,38.2539324 184.402669,38.0825445 184.86863,37.7397687 C185.334973,37.3969929 185.650587,36.9168772 185.815089,36.2998043 C185.911112,35.9225979 185.955489,35.130694 185.948986,33.92371 C185.139484,34.8770552 184.131815,35.3533452 182.924831,35.3533452 C181.423274,35.3533452 180.26105,34.8120196 179.438158,33.7282206 C178.615267,32.6448043 178.20363,31.3456228 178.20363,29.829911 C178.20363,28.7878114 178.392233,27.8264324 178.76944,26.9450089 C179.146646,26.063968 179.693327,25.3833897 180.409867,24.903274 C181.126406,24.4235409 181.968425,24.1832918 182.93516,24.1832918 C184.224395,24.1832918 185.287153,24.7043416 186.123817,25.7468238 L186.123817,24.4300445 L187.83081,24.4300445 L187.83081,33.8724466 C187.83081,35.5729359 187.657891,36.7780071 187.311673,37.4876601 C186.965454,38.1976957 186.416859,38.7581495 185.66589,39.1694039 C184.91492,39.5810409 183.991032,39.7864769 182.893843,39.7864769 C181.591219,39.7864769 180.538407,39.4934342 179.736174,38.9069662 C178.934324,38.3208808 178.546406,37.437927 178.57395,36.2588701 L178.57395,36.2588701 Z" id="Fill-17" fill="#1B1A19"></path>
            <path d="M190.428407,35.3533452 L192.279626,35.3533452 L192.279626,24.4300445 L190.428407,24.4300445 L190.428407,35.3533452 Z M190.428407,22.4036121 L192.279626,22.4036121 L192.279626,20.274653 L190.428407,20.274653 L190.428407,22.4036121 Z" id="Fill-18" fill="#1B1A19"></path>
            <path d="M196.286201,28.8425178 L202.385391,28.8425178 C202.303141,27.9239858 202.069778,27.2346085 201.686068,26.7751512 C201.096157,26.0620552 200.331415,25.7055071 199.392224,25.7055071 C198.541788,25.7055071 197.827162,25.9901335 197.24758,26.5593861 C196.668381,27.1286388 196.347794,27.8895552 196.286201,28.8425178 Z M202.364733,31.8360676 L204.277927,32.0724911 C203.976085,33.1903381 203.417162,34.0576068 202.601157,34.6746797 C201.785151,35.2917527 200.743052,35.6004804 199.474475,35.6004804 C197.876895,35.6004804 196.609849,35.1085053 195.674101,34.1241726 C194.737972,33.140605 194.270098,31.7603203 194.270098,29.9844662 C194.270098,28.146637 194.743327,26.7204448 195.689404,25.7055071 C196.635863,24.690952 197.863123,24.1832918 199.371566,24.1832918 C200.832189,24.1832918 202.0254,24.6806228 202.950819,25.6749021 C203.876619,26.6691815 204.33952,28.0678292 204.33952,29.8712278 C204.33952,29.9810231 204.336077,30.1455249 204.32919,30.3651157 L196.182909,30.3651157 C196.25177,31.5652135 196.591103,32.4837456 197.20129,33.1214769 C197.811477,33.7592082 198.572776,34.0778826 199.484804,34.0778826 C200.16347,34.0778826 200.743052,33.8999911 201.223167,33.5430605 C201.7029,33.186895 202.08355,32.6172598 202.364733,31.8360676 L202.364733,31.8360676 Z" id="Fill-19" fill="#1B1A19"></path>
            <path d="M205.651326,32.0927669 L207.482269,31.8046975 C207.585178,32.5388345 207.871335,33.1008185 208.341121,33.4917972 C208.810525,33.8827758 209.467384,34.0778826 210.310552,34.0778826 C211.160605,34.0778826 211.791833,33.9049644 212.203087,33.5587456 C212.614724,33.2125267 212.82016,32.8062456 212.82016,32.3399021 C212.82016,31.9217616 212.638443,31.5923754 212.275009,31.3525089 C212.02137,31.1880071 211.390525,30.9787456 210.382856,30.7251068 C209.02476,30.382331 208.083657,30.0854626 207.559164,29.8352669 C207.034671,29.5850712 206.636806,29.2384698 206.366335,28.7962278 C206.095098,28.3539858 205.960053,27.8654537 205.960053,27.3306317 C205.960053,26.8440125 206.071379,26.3929715 206.29403,25.978274 C206.517064,25.5635765 206.820436,25.2188879 207.204528,24.9442082 C207.492215,24.7318861 207.884724,24.5516993 208.382055,24.4044128 C208.879004,24.2571263 209.412295,24.1832918 209.981548,24.1832918 C210.838488,24.1832918 211.590988,24.3068594 212.239048,24.5536121 C212.887109,24.8003648 213.365694,25.1347242 213.674039,25.5563078 C213.982384,25.978274 214.195089,26.5421708 214.31177,27.2483808 L212.501486,27.4951335 C212.419235,26.9331495 212.180899,26.4943505 211.786859,26.1787367 C211.392055,25.8635053 210.835044,25.7055071 210.115062,25.7055071 C209.265009,25.7055071 208.657883,25.84629 208.294831,26.1274733 C207.931014,26.4086566 207.74968,26.7376601 207.74968,27.1148665 C207.74968,27.3547331 207.825044,27.5708808 207.975774,27.762927 C208.126504,27.9618594 208.362927,28.1263612 208.685427,28.2564324 C208.870587,28.324911 209.415738,28.4825267 210.320881,28.7296619 C211.630391,29.0793238 212.544333,29.3654804 213.06194,29.5885142 C213.579546,29.811548 213.985827,30.1351957 214.280783,30.560605 C214.575738,30.9856317 214.723025,31.5135676 214.723025,32.1444128 C214.723025,32.7614858 214.543221,33.3425979 214.18323,33.8877491 C213.823238,34.4329004 213.303719,34.854484 212.625053,35.1528826 C211.946005,35.4512811 211.17782,35.6004804 210.320881,35.6004804 C208.901575,35.6004804 207.819689,35.3055249 207.075988,34.7156139 C206.331904,34.1260854 205.857144,33.2519306 205.651326,32.0927669" id="Fill-20" fill="#1B1A19"></path>
        </g>
    </g>
</svg>