<?xml version="1.0" encoding="UTF-8"?>
<svg width="196px" height="39px" viewBox="0 0 196 39" version="1.1" xmlns="http://www.w3.org/2000/svg" xmlns:xlink="http://www.w3.org/1999/xlink">
    <!-- Generator: Sketch 63.1 (92452) - https://sketch.com -->
    <title>Group 10</title>
    <desc>Created with Sketch.</desc>
    <g id="LOGOS" stroke="none" stroke-width="1" fill="none" fill-rule="evenodd">
        <g id="Group-10" transform="translate(0.000000, 0.000543)">
            <polygon id="Fill-1" fill="#FFFFFE" points="174.207008 23.5539015 182.518169 23.5539015 182.518169 15.242197 174.207008 15.242197"></polygon>
            <path d="M165.241073,23.5522727 L168.828207,23.5522727 L168.828207,15.241654 L165.241073,15.241654 L165.241073,9.86231061 L181.326439,9.86231061 C186.100417,9.86231061 187.897513,12.1648737 187.897513,16.1537753 L187.897513,22.6401515 C187.897513,26.6306818 186.100417,28.932702 181.326439,28.932702 L165.241073,28.932702 L165.241073,23.5522727 Z M159.862816,36.1058838 L193.277399,36.1058838 L193.277399,2.68967172 L159.862816,2.68967172 L159.862816,36.1058838 Z" id="Fill-2" fill="#FFFFFE"></path>
            <polyline id="Fill-3" fill="#50B163" points="89.3688763 20.5683333 93.4267298 20.5683333 91.4146338 16.0696212 89.3688763 20.5683333"></polyline>
            <path d="M45.8150884,14.6417172 L39.9145328,14.6417172 C39.1251136,14.6417172 38.5208333,14.9859343 38.5208333,16.1135985 L38.5208333,22.6955303 C38.5208333,23.8231944 39.1251136,24.1663258 39.9145328,24.1663258 L41.4249621,24.1663258 L39.744053,21.7334596 L44.6597348,21.7334596 L46.3031818,24.1131187 C46.8412247,23.9795581 47.2098737,23.5767045 47.2098737,22.6955303 L47.2098737,16.1135985 C47.2098737,14.9859343 46.6028788,14.6417172 45.8150884,14.6417172" id="Fill-4" fill="#50B163"></path>
            <path d="M159.862816,36.1058838 L193.277399,36.1058838 L193.277399,2.68967172 L159.862816,2.68967172 L159.862816,36.1058838 Z M150.040139,14.6438889 L136.264937,14.6438889 L136.264937,17.3471338 L146.422601,17.3471338 L146.422601,21.2611111 L136.264937,21.2611111 L136.264937,24.1657828 L150.040139,24.1657828 L150.040139,28.7296465 L131.351427,28.7296465 L131.351427,10.0783965 L150.040139,10.0783965 L150.040139,14.6438889 Z M120.932614,28.7296465 L116.599495,22.4387247 L111.828232,22.4387247 L111.828232,28.7296465 L106.915808,28.7296465 L106.915808,10.0783965 L119.854899,10.0783965 C123.853573,10.0783965 125.390063,12.0383712 125.390063,15.4088763 L125.390063,16.9844571 C125.390063,19.0063258 124.925859,21.3925 122.158548,22.1574874 L126.687664,28.7296465 L120.932614,28.7296465 Z M97.0985606,28.7296465 L95.1993939,24.4877399 L87.6249874,24.4877399 L85.7241919,28.7296465 L80.0136616,28.7296465 L88.9111869,10.0783965 L93.9121086,10.0783965 L102.810177,28.7296465 L97.0985606,28.7296465 Z M76.4726768,23.196654 C76.4726768,27.1953283 74.5137879,28.7296465 71.142197,28.7296465 L63.3044697,28.7296465 C59.9317929,28.7296465 57.973447,27.1953283 57.973447,23.196654 L57.973447,10.0783965 L62.8793561,10.0783965 L62.8793561,22.6960732 C62.8793561,23.8226515 63.4836364,24.1668687 64.2714268,24.1668687 L70.1736111,24.1668687 C70.9619444,24.1668687 71.5683965,23.8226515 71.5683965,22.6960732 L71.5683965,10.0783965 L76.4726768,10.0783965 L76.4726768,23.196654 Z M52.114697,23.196654 C52.114697,26.0937247 51.0863889,27.6986237 49.2344571,28.3615404 L50.9159091,30.7949495 L46.0002273,30.7949495 L44.5744949,28.7296465 L38.945947,28.7296465 C35.5732702,28.7296465 33.6143813,27.1953283 33.6143813,23.196654 L33.6143813,15.6113889 C33.6143813,11.6143434 35.5732702,10.0783965 38.945947,10.0783965 L46.7825884,10.0783965 C50.1552652,10.0783965 52.114697,11.6143434 52.114697,15.6113889 L52.114697,23.196654 Z M28.311048,16.4339268 L23.4051389,16.4339268 L23.4051389,16.1141414 C23.4051389,14.9859343 22.7997727,14.6438889 22.0108965,14.6438889 L16.0202146,14.6438889 C15.1135227,14.6438889 14.7144697,15.1553283 14.7144697,15.7422348 C14.7144697,16.5490278 15.5131187,16.8378662 16.2525884,16.9366793 C16.7938889,17.008346 21.0944318,17.5805934 23.4936364,17.8998359 C26.682803,18.3254924 28.311048,19.8098611 28.311048,22.4854167 L28.311048,23.196654 C28.311048,27.1953283 26.3521591,28.7296465 22.981654,28.7296465 L15.1412121,28.7296465 C11.7696212,28.7296465 9.81181818,27.1953283 9.81181818,23.196654 L9.81181818,22.2617298 L14.7144697,22.2617298 L14.7144697,22.6939015 C14.7144697,23.8226515 15.3192929,24.1657828 16.1108838,24.1657828 L22.0108965,24.1657828 C22.943649,24.1657828 23.4051389,23.7086364 23.4051389,23.1059848 C23.4051389,22.5608838 23.1374747,22.0271843 21.7492045,21.8501894 C21.1937879,21.7801515 16.8438384,21.1981313 14.3110732,20.8468561 C12.0454293,20.5314141 9.81181818,19.4227525 9.81181818,16.347601 L9.81181818,15.6113889 C9.81181818,11.6143434 11.7696212,10.0783965 15.1412121,10.0783965 L22.981654,10.0783965 C26.3521591,10.0783965 28.311048,11.6143434 28.311048,15.6113889 L28.311048,16.4339268 Z M-4.26325641e-14,38.7955556 L195.969242,38.7955556 L195.969242,-3.55271368e-15 L-4.26325641e-14,-3.55271368e-15 L-4.26325641e-14,38.7955556 Z" id="Fill-5" fill="#50B163"></path>
            <path d="M119.018245,14.6438889 L111.823346,14.6438889 L111.823346,18.551351 L119.018245,18.551351 C120.145909,18.551351 120.490126,17.944899 120.490126,17.1554798 L120.490126,16.0386742 C120.490126,15.2492551 120.145909,14.6438889 119.018245,14.6438889" id="Fill-6" fill="#50B163"></path>
            <path d="M174.207008,23.5528157 L182.518169,23.5528157 L182.518169,15.242197 L174.207008,15.242197 L174.207008,23.5528157 Z M187.897513,22.6401515 L187.897513,16.1537753 C187.897513,12.1637879 186.100417,9.86231061 181.326439,9.86231061 L165.241073,9.86231061 L165.241073,15.242197 L168.828207,15.242197 L168.828207,23.5528157 L165.241073,23.5528157 L165.241073,28.9332449 L181.326439,28.9332449 C186.100417,28.9332449 187.897513,26.6306818 187.897513,22.6401515 L187.897513,22.6401515 Z" id="Fill-7" fill="#50B163"></path>
            <polyline id="Fill-8" fill="#FFFFFE" points="131.351427 28.7296465 150.040139 28.7296465 150.040139 24.1663258 136.264937 24.1663258 136.264937 21.2611111 146.422601 21.2611111 146.422601 17.3471338 136.264937 17.3471338 136.264937 14.6444318 150.040139 14.6444318 150.040139 10.0783965 131.351427 10.0783965 131.351427 28.7296465"></polyline>
            <path d="M22.981654,10.0794823 L15.1412121,10.0794823 C11.7707071,10.0794823 9.81181818,11.6148864 9.81181818,15.6119318 L9.81181818,16.3481439 C9.81181818,19.4216667 12.0454293,20.5319571 14.3110732,20.847399 C16.8432955,21.1986742 21.1937879,21.7796086 21.7492045,21.8501894 C23.1374747,22.0271843 23.4051389,22.5603409 23.4051389,23.1054419 C23.4051389,23.7091793 22.943649,24.1663258 22.0108965,24.1663258 L16.1108838,24.1663258 C15.3203788,24.1663258 14.7150126,23.8231944 14.7150126,22.6928157 L14.7150126,22.2611869 L9.81181818,22.2611869 L9.81181818,23.197197 C9.81181818,27.1947854 11.7707071,28.7296465 15.1412121,28.7296465 L22.981654,28.7296465 C26.3516162,28.7296465 28.311048,27.1947854 28.311048,23.197197 L28.311048,22.4859596 C28.311048,19.810404 26.682803,18.3249495 23.4936364,17.8998359 C21.0944318,17.5811364 16.7906313,17.0088889 16.2536742,16.9366793 C15.5131187,16.8394949 14.7150126,16.5495707 14.7150126,15.7422348 C14.7150126,15.1547854 15.1135227,14.643346 16.0202146,14.643346 L22.0108965,14.643346 C22.7997727,14.643346 23.4051389,14.9864773 23.4051389,16.1135985 L23.4051389,16.4344697 L28.311048,16.4344697 L28.311048,15.6119318 C28.311048,11.6148864 26.3516162,10.0794823 22.981654,10.0794823" id="Fill-9" fill="#FFFFFE"></path>
            <path d="M47.2098737,22.6955303 C47.2098737,23.5767045 46.8412247,23.9784722 46.3031818,24.1125758 L44.6597348,21.7334596 L39.744053,21.7334596 L41.4255051,24.1668687 L39.9145328,24.1668687 C39.1251136,24.1668687 38.5208333,23.8226515 38.5208333,22.6955303 L38.5208333,16.1135985 C38.5208333,14.9848485 39.1251136,14.6417172 39.9145328,14.6417172 L45.8150884,14.6417172 C46.6034217,14.6417172 47.2098737,14.9848485 47.2098737,16.1135985 L47.2098737,22.6955303 Z M46.7836742,10.0778535 L38.945947,10.0778535 C35.5732702,10.0778535 33.6149242,11.6143434 33.6149242,15.6124747 L33.6149242,23.196654 C33.6149242,27.1953283 35.5732702,28.7291035 38.945947,28.7291035 L44.5744949,28.7291035 L46.0002273,30.7949495 L50.9159091,30.7949495 L49.2344571,28.3604545 C51.085846,27.6986237 52.114697,26.0937247 52.114697,23.196654 L52.114697,15.6124747 C52.114697,11.6143434 50.1552652,10.0778535 46.7836742,10.0778535 L46.7836742,10.0778535 Z" id="Fill-10" fill="#FFFFFE"></path>
            <path d="M71.5683965,22.6955303 C71.5683965,23.8226515 70.9619444,24.1668687 70.1736111,24.1668687 L64.2725126,24.1668687 C63.4847222,24.1668687 62.8793561,23.8226515 62.8793561,22.6955303 L62.8793561,10.0778535 L57.973447,10.0778535 L57.973447,23.196654 C57.973447,27.1953283 59.9317929,28.7291035 63.3044697,28.7291035 L71.142197,28.7291035 C74.5137879,28.7291035 76.4726768,27.1953283 76.4726768,23.196654 L76.4726768,10.0778535 L71.5683965,10.0778535 L71.5683965,22.6955303" id="Fill-11" fill="#FFFFFE"></path>
            <path d="M89.3688763,20.5683333 L91.4146338,16.0696212 L93.4267298,20.5683333 L89.3688763,20.5683333 Z M88.9106439,10.0800253 L80.0131187,28.7291035 L85.7241919,28.7291035 L87.6255303,24.4882828 L95.198851,24.4882828 L97.0991035,28.7291035 L102.809634,28.7291035 L93.9115657,10.0800253 L88.9106439,10.0800253 L88.9106439,10.0800253 Z" id="Fill-12" fill="#FFFFFE"></path>
            <path d="M120.490126,17.1554798 C120.490126,17.944899 120.145909,18.5502652 119.018245,18.5502652 L111.823346,18.5502652 L111.823346,14.6438889 L119.018245,14.6438889 C120.145909,14.6438889 120.490126,15.249798 120.490126,16.0386742 L120.490126,17.1554798 Z M125.387348,16.9839141 L125.387348,15.4077904 C125.387348,12.0372854 123.854659,10.0794823 119.854899,10.0794823 L106.915265,10.0794823 L106.915265,28.7291035 L111.828775,28.7291035 L111.828775,22.4387247 L116.599495,22.4387247 L120.932071,28.7291035 L126.687664,28.7291035 L122.159634,22.1574874 C124.925859,21.3935859 125.387348,19.0063258 125.387348,16.9839141 L125.387348,16.9839141 Z" id="Fill-13" fill="#FFFFFE"></path>
        </g>
    </g>
</svg>