<?xml version="1.0" encoding="UTF-8"?>
<svg xmlns="http://www.w3.org/2000/svg" width="120" height="36.18" viewBox="0 0 120 36.18">
  <path d="M72.39,41.63c-5.46,4.06-13.3,6.19-20.1,6.19-9.5,0-18.07-3.5-24.56-9.32-.5-.46-.06-1.09.55-.74,6.95,4.06,15.53,6.49,24.4,6.49,5.98,0,12.56-1.24,18.61-3.84.92-.39,1.67.6.79,1.22" transform="translate(-25 -25)" fill="#FF9900"/>
  <path d="M74.86,38.84c-.7-.9-4.63-.42-6.39-.22-.53.07-.62-.4-.14-.74,3.13-2.2,8.27-1.57,8.86-.83.6.75-.16,5.97-3.13,8.46-.46.38-.9.18-.69-.33.67-1.69,2.17-5.45,1.49-6.34" transform="translate(-25 -25)" fill="#FF9900"/>
  <path d="M67.13,30.19v-2.3c0-.35.26-.58.58-.58h10.26c.33,0,.59.24.59.58v1.97c0,.33-.28.76-.77,1.45l-5.32,7.58c1.97-.05,4.06.25,5.85,1.26.4.23.51.57.54.9v2.45c0,.34-.37.73-.76.53-3.16-1.66-7.37-1.84-10.88.02-.36.19-.73-.2-.73-.53v-2.33c0-.37.01-1.02.38-1.59l6.17-8.81h-5.37c-.33,0-.58-.24-.58-.58" transform="translate(-25 -25)" fill="#232F3E"/>
  <path d="M37.47,44.17h-3.12c-.3-.02-.53-.24-.56-.53V27.57c0-.32.27-.58.6-.58h2.91c.3.01.54.25.56.55v2.1h.06c.76-2.02,2.18-2.97,4.1-2.97,1.94,0,3.16.95,4.04,2.97.75-2.02,2.46-2.97,4.29-2.97,1.3,0,2.73.54,3.6,1.74.98,1.33.78,3.26.78,4.96v9.99c0,.32-.27.58-.6.58h-3.12c-.31-.02-.56-.27-.56-.58v-8.4c0-.67.06-2.33-.09-2.97-.23-1.06-.93-1.36-1.83-1.36-.75,0-1.54.5-1.86,1.31-.32.81-.29,2.16-.29,3.02v8.4c0,.32-.27.58-.6.58h-3.12c-.31-.02-.56-.27-.56-.58v-8.4c0-1.76.29-4.37-1.92-4.37-2.24,0-2.15,2.53-2.15,4.37v8.4c0,.32-.27.58-.6.58" transform="translate(-25 -25)" fill="#232F3E"/>
  <path d="M86.13,27c4.62,0,7.12,3.97,7.12,9.02,0,4.88-2.76,8.75-7.12,8.75-4.54,0-7.01-3.97-7.01-8.92,0-4.98,2.5-8.85,7.01-8.85m.03,3.27c-2.3,0-2.44,3.13-2.44,5.09,0,1.96-.03,6.14,2.41,6.14,2.41,0,2.53-3.36,2.53-5.41,0-1.35-.06-2.96-.46-4.24-.35-1.11-1.04-1.58-2.04-1.58" transform="translate(-25 -25)" fill="#232F3E"/>
  <path d="M99.5,44.17h-3.11c-.31-.02-.56-.27-.56-.58V27.53c.03-.29.28-.52.59-.52h2.9c.27.01.49.2.55.45v2.54h.06c.87-2.19,2.09-3.24,4.24-3.24,1.39,0,2.75.5,3.63,1.88.81,1.27.81,3.42.81,4.96v10.02c-.03.29-.29.51-.59.51h-3.13c-.29-.02-.53-.23-.55-.51v-8.65c0-1.74.2-4.29-1.94-4.29-.75,0-1.45.5-1.8,1.27-.43.97-.49,1.94-.49,3.02v8.57c-.01.32-.28.58-.61.58" transform="translate(-25 -25)" fill="#232F3E"/>
  <path d="M25,39.08c0-1.9.07-3.48-.9-4.73-.77-1.01-2-1.63-3.35-1.63-1.86,0-2.94,1.42-2.94,3.52,0,4.14,3.72,4.9,7.19,4.9V39.08m3.12,7.27c-.2.18-.5.2-.73.07-1.03-.85-1.21-1.25-1.77-2.06-1.69,1.73-2.9,2.24-5.09,2.24-2.6,0-4.62-1.6-4.62-4.82,0-2.51,1.36-4.22,3.3-5.05,1.68-.74,4.02-.87,5.8-1.07v-.4c0-.73.06-1.6-.38-2.24-.37-.57-1.08-.8-1.71-.8-1.17,0-2.21.6-2.47,1.84-.05.28-.25.55-.52.57l-3.03-.33c-.26-.06-.54-.26-.47-.65C17.15,28.47,20.75,27,24,27c1.67,0,3.85.44,5.17,1.71,1.67,1.57,1.51,3.66,1.51,5.94v5.37c0,1.62.67,2.32,1.3,3.19.22.31.27.67-.01.9-.7.59-1.95,1.67-2.64,2.27l-.01-.03" transform="translate(-25 -25)" fill="#232F3E"/>
  <path d="M124.48,44.17h-3.11c-.31-.02-.56-.27-.56-.58V27.53c.03-.29.29-.52.61-.52h2.89c.28.01.5.2.56.45v2.54h.06c.87-2.19,2.09-3.24,4.24-3.24,1.39,0,2.75.5,3.63,1.88.81,1.27.81,3.42.81,4.96v10.02c-.04.29-.3.51-.61.51h-3.13c-.28-.02-.52-.23-.55-.51v-8.65c0-1.74.2-4.29-1.94-4.29-.75,0-1.45.5-1.8,1.27-.43.97-.49,1.94-.49,3.02v8.57c-.01.32-.28.58-.61.58" transform="translate(-25 -25)" fill="#232F3E"/>
  <path d="M114.91,36.4c0,1.22.03,2.24-.59,3.33-.5.89-1.29,1.43-2.17,1.43-1.2,0-1.91-.92-1.91-2.27,0-2.67,2.39-3.15,4.67-3.15v.66m3.13,7.53c-.21.18-.5.2-.73.07-1.03-.85-1.21-1.25-1.77-2.06-1.69,1.73-2.9,2.24-5.09,2.24-2.6,0-4.62-1.6-4.62-4.82,0-2.51,1.36-4.22,3.3-5.05,1.68-.74,4.02-.87,5.8-1.07v-.4c0-.73.06-1.6-.38-2.24-.37-.57-1.08-.8-1.71-.8-1.17,0-2.21.6-2.47,1.84-.05.28-.25.55-.52.57l-3.03-.33c-.26-.06-.54-.26-.47-.65.71-3.74,4.31-4.87,7.51-4.87,1.67,0,3.85.44,5.17,1.71,1.67,1.57,1.51,3.66,1.51,5.94v5.37c0,1.62.67,2.32,1.3,3.19.22.31.27.67-.01.9-.7.59-1.95,1.67-2.64,2.27l-.15-.81" transform="translate(-25 -25)" fill="#232F3E"/>
  <path d="M73.08,49.86c-7.68,5.66-18.83,8.68-28.43,8.68-13.44,0-25.55-4.97-34.72-13.24-.72-.65-.08-1.54.79-1.04,9.86,5.74,22.02,9.19,34.59,9.19,8.47,0,17.79-1.76,26.35-5.42,1.29-.55,2.38.85,1.42,1.83" transform="translate(-25 -25)" fill="#FF9900"/>
  <path d="M76.56,45.82c-.98-1.26-6.51-.6-9.01-.3-.76.09-.87-.57-.19-1.05,4.42-3.11,11.67-2.21,12.52-1.17.85,1.06-.22,8.44-4.43,11.98-.65.54-1.26.25-.98-.46.95-2.37,3.07-7.7,2.09-9" transform="translate(-25 -25)" fill="#FF9900"/>
</svg>