<?xml version="1.0" encoding="UTF-8"?>
<svg xmlns="http://www.w3.org/2000/svg" width="120" height="36" viewBox="0 0 120 36">
  <path d="M79.04,16.03c-2.29,0-4.27,1.1-5.9,0.13-.31-.18-.57-.37-.8-.55a6.77,6.77,0,0,1-1.17-1.13,6.93,6.93,0,0,1-1.56-4.43,7.2,7.2,0,0,1,1.66-4.6,7.24,7.24,0,0,1,1.2-1.1,6.85,6.85,0,0,1,4.4-1.59,7.59,7.59,0,0,1,1.39.13,7.77,7.77,0,0,1,1.32.37,8.21,8.21,0,0,1,1.21.58,7.79,7.79,0,0,1,1.08.77,7.68,7.68,0,0,1,.93.93,7.56,7.56,0,0,1,.77,1.08,7.74,7.74,0,0,1,.58,1.21,7.93,7.93,0,0,1,.37,1.32,7.52,7.52,0,0,1,.13,1.39,7.53,7.53,0,0,1-.13,1.39,7.93,7.93,0,0,1-.37,1.32,7.74,7.74,0,0,1-.58,1.21,7.56,7.56,0,0,1-.77,1.08,7.68,7.68,0,0,1-.93.93,7.79,7.79,0,0,1-1.08.77,8.21,8.21,0,0,1-1.21.58,7.77,7.77,0,0,1-1.32.37A7.59,7.59,0,0,1,79.04,16.03Z" fill="#999"/>
  <path d="M67.43,35.75H63.95l-1.9-5.98H53.57l-1.81,5.98H48.38L56.7,10.92h2.41ZM61.3,26.86l-2.5-7.73c-.26-.8-.76-2.67-.76-2.67h-.04s-.5,1.87-.76,2.67l-2.46,7.73Z" fill="#999"/>
  <path d="M83.36,28.12c0,2.28.04,4.3.17,5.98h-3.02l-.17-2.85h-.08a6.85,6.85,0,0,1-6.07,3.28c-4.3,0-7.53-3.65-7.53-9.25-.04-6.07,3.61-9.67,7.9-9.67,2.5,0,4.43,1.05,5.39,2.67h.08V10.92h3.32Zm-3.32-4.64a7.1,7.1,0,0,0-.17-1.64,4.76,4.76,0,0,0-4.64-3.53c-3.48,0-5.35,3.06-5.35,6.99,0,3.78,1.94,6.7,5.27,6.7a4.83,4.83,0,0,0,4.72-3.82,6.55,6.55,0,0,0,.17-1.51Z" fill="#999"/>
  <path d="M87.7,28.12c0,2.28.04,4.3.17,5.98h-3.02l-.17-2.85h-.08a6.85,6.85,0,0,1-6.07,3.28c-4.3,0-7.53-3.65-7.53-9.25-.04-6.07,3.61-9.67,7.9-9.67,2.5,0,4.43,1.05,5.39,2.67h.08V10.92h3.32Zm-3.32-4.64a7.1,7.1,0,0,0-.17-1.64,4.76,4.76,0,0,0-4.64-3.53c-3.48,0-5.35,3.06-5.35,6.99,0,3.78,1.94,6.7,5.27,6.7a4.83,4.83,0,0,0,4.72-3.82,6.55,6.55,0,0,0,.17-1.51Z" fill="#999"/>
  <path d="M92.04,10.92h3.32V35.75h-3.32Z" fill="#999"/>
  <path d="M113.62,25.9c0,7.24-5.02,10.26-9.75,10.26-5.31,0-9.38-3.9-9.38-9.92,0-6.45,4.3-10.26,9.71-10.26C109.82,15.98,113.62,20.05,113.62,25.9Zm-15.69.21c0,4.3,2.46,7.53,6.12,7.53s6.12-3.19,6.12-7.61c0-3.32-1.66-7.53-6.03-7.53S97.93,22.38,97.93,26.11Z" fill="#999"/>
</svg>