<?xml version="1.0" encoding="UTF-8"?>
<svg xmlns="http://www.w3.org/2000/svg" width="120" height="48" viewBox="0 0 120 48">
  <path d="M0,0V48H120V0ZM118.5,46.5H1.5V1.5h117Z" fill="#1f70c1"/>
  <path d="M36.75,30h3v1.5h-3Zm6,0h3v1.5h-3Zm6,0h3v1.5h-3Zm6,0h3v1.5h-3Zm6,0h3v1.5h-3Zm6,0h3v1.5h-3Zm6,0h3v1.5h-3Z" fill="#1f70c1"/>
  <path d="M36.75,16.5h3v1.5h-3Zm6,0h3v1.5h-3Zm6,0h3v1.5h-3Zm6,0h3v1.5h-3Zm6,0h3v1.5h-3Zm6,0h3v1.5h-3Zm6,0h3v1.5h-3Z" fill="#1f70c1"/>
  <path d="M36.75,33h3v1.5h-3Zm0-3h3v1.5h-3Zm0-3h3v1.5h-3Zm0-3h3v1.5h-3Zm0-3h3v1.5h-3Zm0-3h3v1.5h-3Z" fill="#1f70c1"/>
  <path d="M72.75,33h3v1.5h-3Zm0-3h3v1.5h-3Zm0-3h3v1.5h-3Zm0-3h3v1.5h-3Zm0-3h3v1.5h-3Zm0-3h3v1.5h-3Z" fill="#1f70c1"/>
  <path d="M42.75,33h3v1.5h-3Zm6,0h3v1.5h-3Zm6,0h3v1.5h-3Zm6,0h3v1.5h-3Zm6,0h3v1.5h-3Zm6,0h3v1.5h-3Z" fill="#1f70c1"/>
  <path d="M42.75,18h3v1.5h-3Zm6,0h3v1.5h-3Zm6,0h3v1.5h-3Zm6,0h3v1.5h-3Zm6,0h3v1.5h-3Zm6,0h3v1.5h-3Z" fill="#1f70c1"/>
  <path d="M42.75,27h3v1.5h-3Zm6,0h3v1.5h-3Zm6,0h3v1.5h-3Zm6,0h3v1.5h-3Zm6,0h3v1.5h-3Zm6,0h3v1.5h-3Z" fill="#1f70c1"/>
  <path d="M42.75,21h3v1.5h-3Zm6,0h3v1.5h-3Zm6,0h3v1.5h-3Zm6,0h3v1.5h-3Zm6,0h3v1.5h-3Zm6,0h3v1.5h-3Z" fill="#1f70c1"/>
  <path d="M42.75,24h3v1.5h-3Zm6,0h3v1.5h-3Zm6,0h3v1.5h-3Zm6,0h3v1.5h-3Zm6,0h3v1.5h-3Zm6,0h3v1.5h-3Z" fill="#1f70c1"/>
</svg>