<?xml version="1.0" encoding="UTF-8"?>
<svg xmlns="http://www.w3.org/2000/svg" width="150" height="31.67" viewBox="0 0 150 31.67">
  <path d="M150,14.17V13h-3.33v8.33h3.33v-4.17c0-1.67,1.67-2.5,3.33-2.5V13C151.67,13,150.83,13.33,150,14.17Z" transform="translate(-25 -2.5)" fill="#737373"/>
  <path d="M141.67,10.83a4.17,4.17,0,1,0,4.16,4.17A4.17,4.17,0,0,0,141.67,10.83Zm0,6.67a2.5,2.5,0,1,1,2.5-2.5A2.5,2.5,0,0,1,141.67,17.5Z" transform="translate(-25 -2.5)" fill="#737373"/>
  <path d="M133.33,10.83A4.17,4.17,0,1,0,137.5,15,4.17,4.17,0,0,0,133.33,10.83Zm0,6.67a2.5,2.5,0,1,1,2.5-2.5A2.5,2.5,0,0,1,133.33,17.5Z" transform="translate(-25 -2.5)" fill="#737373"/>
  <path d="M120.83,12.5V13h3.34c-.17,1.67-1.67,2.5-3.34,2.5a3.34,3.34,0,0,1,0-6.67,3.2,3.2,0,0,1,2.5,1.25l1.67-1.67a5.83,5.83,0,1,0,0,8.33,5,5,0,0,0,1.67-3.75V12.5Z" transform="translate(-25 -2.5)" fill="#737373"/>
  <path d="M110,10.83A4.17,4.17,0,1,0,114.17,15,4.17,4.17,0,0,0,110,10.83Zm0,6.67a2.5,2.5,0,1,1,2.5-2.5A2.5,2.5,0,0,1,110,17.5Z" transform="translate(-25 -2.5)" fill="#737373"/>
  <rect x="70" y="10.5" width="3.33" height="8.33" fill="#737373"/>
  <path d="M96.67,10.83A4.17,4.17,0,1,0,100.83,15,4.17,4.17,0,0,0,96.67,10.83Zm0,6.67a2.5,2.5,0,1,1,2.5-2.5A2.5,2.5,0,0,1,96.67,17.5Z" transform="translate(-25 -2.5)" fill="#737373"/>
  <path d="M87.5,10.83A4.17,4.17,0,0,0,83.33,15v6.67h3.34V18.33h.83a4.17,4.17,0,0,0,0-8.33Zm0,5.84H86.67V15a.83.83,0,0,1,.83-.83,2.5,2.5,0,1,1,0,5Z" transform="translate(-25 -2.5)" fill="#737373"/>
  <path d="M71.67,5.83A1.67,1.67,0,1,0,73.33,7.5,1.67,1.67,0,0,0,71.67,5.83Z" transform="translate(-25 -2.5)" fill="#737373"/>
  <path d="M65,10.83A4.17,4.17,0,0,0,60.83,15v6.67h3.34V18.33H65a4.17,4.17,0,0,0,0-8.33Zm0,5.84H64.17V15A.83.83,0,0,1,65,14.17a2.5,2.5,0,1,1,0,5Z" transform="translate(-25 -2.5)" fill="#737373"/>
  <rect x="25" y="10.5" width="3.33" height="8.33" fill="#737373"/>
  <path d="M51.67,5.83A1.67,1.67,0,1,0,53.33,7.5,1.67,1.67,0,0,0,51.67,5.83Z" transform="translate(-25 -2.5)" fill="#737373"/>
  <path d="M45,10.83c-2.5,0-4.17,1.67-4.17,4.17s1.67,4.17,4.17,4.17a3.26,3.26,0,0,0,2.5-1.25V21.5h3.33V15C50.83,12.5,47.5,10.83,45,10.83Zm0,6.67a2.5,2.5,0,1,1,2.5-2.5A2.5,2.5,0,0,1,45,17.5Z" transform="translate(-25 -2.5)" fill="#737373"/>
  <path d="M38.33,14.17V13H35v8.33h3.33v-4.17c0-1.67,1.67-2.5,3.33-2.5V13C40,13,39.17,13.33,38.33,14.17Z" transform="translate(-25 -2.5)" fill="#737373"/>
  <path d="M25,2.5V34.17H56.67V2.5ZM54.17,31.67H27.5V5H54.17Z" transform="translate(-25 -2.5)" fill="#f25022"/>
  <path d="M58.33,2.5V34.17H90V2.5ZM87.5,31.67H60.83V5H87.5Z" transform="translate(-25 -2.5)" fill="#7fba00"/>
  <path d="M25,35.83V67.5H56.67V35.83ZM54.17,65H27.5V38.33H54.17Z" transform="translate(-25 -2.5)" fill="#00a4ef"/>
  <path d="M58.33,35.83V67.5H90V35.83ZM87.5,65H60.83V38.33H87.5Z" transform="translate(-25 -2.5)" fill="#ffb900"/>
</svg>