<?xml version="1.0" encoding="UTF-8"?>
<svg xmlns="http://www.w3.org/2000/svg" width="120" height="36" viewBox="0 0 120 36">
  <path d="M115.2,18c0,9.94-8.06,18-18,18H22.8c-9.94,0-18-8.06-18-18h0c0-9.94,8.06-18,18-18h74.4c9.94,0,18,8.06,18,18Z" fill="#034ea2"/>
  <path d="M22.93,23.7c0,.85-.69,1.54-1.54,1.54h0c-.85,0-1.54-.69-1.54-1.54V12.3c0-.85,.69-1.54,1.54-1.54h0c.85,0,1.54,.69,1.54,1.54V23.7Z" fill="#fff"/>
  <path d="M30.39,23.7c0,.85-.69,1.54-1.54,1.54h0c-.85,0-1.54-.69-1.54-1.54v-7.7c0-.85-.69-1.54-1.54-1.54h0c-.85,0-1.54,.69-1.54,1.54v7.7c0,.85-.69,1.54-1.54,1.54h0c-.85,0-1.54-.69-1.54-1.54V12.3c0-.85,.69-1.54,1.54-1.54h4.62c1.7,0,3.08,1.38,3.08,3.08v9.86Z" fill="#fff"/>
  <path d="M38.93,12.3c0-.85-.69-1.54-1.54-1.54h-4.62c-.85,0-1.54,.69-1.54,1.54V23.7c0,.85,.69,1.54,1.54,1.54h4.62c.85,0,1.54-.69,1.54-1.54v-3.08c0-.85-.69-1.54-1.54-1.54h0c-.85,0-1.54,.69-1.54,1.54v1.54h-1.54v-9.24h3.08v1.54c0,.85,.69,1.54,1.54,1.54h0c.85,0,1.54-.69,1.54-1.54V12.3h-.04Z" fill="#fff"/>
  <path d="M47.47,12.3c0-.85-.69-1.54-1.54-1.54h-4.62c-.85,0-1.54,.69-1.54,1.54V23.7c0,.85,.69,1.54,1.54,1.54h4.62c.85,0,1.54-.69,1.54-1.54v-3.08c0-.85-.69-1.54-1.54-1.54h0c-.85,0-1.54,.69-1.54,1.54v1.54h-1.54v-9.24h3.08v1.54c0,.85,.69,1.54,1.54,1.54h0c.85,0,1.54-.69,1.54-1.54V12.3h-.04Z" fill="#fff"/>
  <path d="M56,12.3c0-.85-.69-1.54-1.54-1.54h-4.62c-.85,0-1.54,.69-1.54,1.54V23.7c0,.85,.69,1.54,1.54,1.54h0c.85,0,1.54-.69,1.54-1.54v-3.08h3.08v3.08c0,.85,.69,1.54,1.54,1.54h0c.85,0,1.54-.69,1.54-1.54V12.3c0-.85-.69-1.54-1.54-1.54h0c-.85,0-1.54,.69-1.54,1.54v3.08h-3.08V12.3h3.08Z" fill="#fff"/>
  <path d="M64.54,23.7c0,.85-.69,1.54-1.54,1.54h0c-.85,0-1.54-.69-1.54-1.54V12.3c0-.85,.69-1.54,1.54-1.54h0c.85,0,1.54,.69,1.54,1.54V23.7Z" fill="#fff"/>
  <path d="M73.08,12.3c0-.85-.69-1.54-1.54-1.54h-4.62c-.85,0-1.54,.69-1.54,1.54V23.7c0,.85,.69,1.54,1.54,1.54h4.62c.85,0,1.54-.69,1.54-1.54V12.3Zm-3.08,9.86h-1.54v-9.24h1.54v9.24Z" fill="#fff"/>
  <path d="M81.62,10.76h-4.62c-.85,0-1.54,.69-1.54,1.54V23.7c0,.85,.69,1.54,1.54,1.54h0c.85,0,1.54-.69,1.54-1.54v-3.08h3.08c1.7,0,3.08-1.38,3.08-3.08v-3.7c0-1.7-1.38-3.08-3.08-3.08Zm0,6.78h-3.08v-4.62h3.08v4.62Z" fill="#fff"/>
  <path d="M92.7,10.76c-.85,0-1.54,.69-1.54,1.54v6.16l-3.08-6.93c-.35-.77-1.27-1.12-2.04-.77-.46,.2-.77,.65-.77,1.15V23.7c0,.85,.69,1.54,1.54,1.54h0c.85,0,1.54-.69,1.54-1.54v-6.16l3.08,6.93c.35,.77,1.27,1.12,2.04,.77,.46-.2,.77-.65,.77-1.15V12.3c0-.85-.69-1.54-1.54-1.54Z" fill="#fff"/>
  <path d="M101.24,10.76h-4.62c-.85,0-1.54,.69-1.54,1.54V23.7c0,.85,.69,1.54,1.54,1.54h0c.85,0,1.54-.69,1.54-1.54v-3.08h3.08c1.7,0,3.08-1.38,3.08-3.08v-3.7c0-1.7-1.38-3.08-3.08-3.08Zm0,6.78h-3.08v-4.62h3.08v4.62Z" fill="#fff"/>
</svg>